<svg id="visual" viewBox="0 0 900 450" width="900" height="450" xmlns="http://www.w3.org/2000/svg" xmlns:xlink="http://www.w3.org/1999/xlink" version="1.1"><rect x="0" y="0" width="900" height="450" fill="#ade8f4"></rect><path d="M0 115L21.5 112.2C43 109.3 86 103.7 128.8 106.3C171.7 109 214.3 120 257.2 127.5C300 135 343 139 385.8 135.8C428.7 132.7 471.3 122.3 514.2 120.7C557 119 600 126 642.8 128C685.7 130 728.3 127 771.2 128.2C814 129.3 857 134.7 878.5 137.3L900 140L900 0L878.5 0C857 0 814 0 771.2 0C728.3 0 685.7 0 642.8 0C600 0 557 0 514.2 0C471.3 0 428.7 0 385.8 0C343 0 300 0 257.2 0C214.3 0 171.7 0 128.8 0C86 0 43 0 21.5 0L0 0Z" fill="#ade8f4"></path><path d="M0 93L21.5 90.7C43 88.3 86 83.7 128.8 87.2C171.7 90.7 214.3 102.3 257.2 108.5C300 114.7 343 115.3 385.8 113C428.7 110.7 471.3 105.3 514.2 105.2C557 105 600 110 642.8 108.7C685.7 107.3 728.3 99.7 771.2 100C814 100.3 857 108.7 878.5 112.8L900 117L900 0L878.5 0C857 0 814 0 771.2 0C728.3 0 685.7 0 642.8 0C600 0 557 0 514.2 0C471.3 0 428.7 0 385.8 0C343 0 300 0 257.2 0C214.3 0 171.7 0 128.8 0C86 0 43 0 21.5 0L0 0Z" fill="#bdeeed"></path><path d="M0 88L21.5 84.5C43 81 86 74 128.8 71.7C171.7 69.3 214.3 71.7 257.2 75.5C300 79.3 343 84.7 385.8 82.8C428.7 81 471.3 72 514.2 66.5C557 61 600 59 642.8 62.3C685.7 65.7 728.3 74.3 771.2 79.2C814 84 857 85 878.5 85.5L900 86L900 0L878.5 0C857 0 814 0 771.2 0C728.3 0 685.7 0 642.8 0C600 0 557 0 514.2 0C471.3 0 428.7 0 385.8 0C343 0 300 0 257.2 0C214.3 0 171.7 0 128.8 0C86 0 43 0 21.5 0L0 0Z" fill="#cff2e9"></path><path d="M0 52L21.5 54.3C43 56.7 86 61.3 128.8 60.5C171.7 59.7 214.3 53.3 257.2 50C300 46.7 343 46.3 385.8 45C428.7 43.7 471.3 41.3 514.2 43.5C557 45.7 600 52.3 642.8 56.8C685.7 61.3 728.3 63.7 771.2 60.8C814 58 857 50 878.5 46L900 42L900 0L878.5 0C857 0 814 0 771.2 0C728.3 0 685.7 0 642.8 0C600 0 557 0 514.2 0C471.3 0 428.7 0 385.8 0C343 0 300 0 257.2 0C214.3 0 171.7 0 128.8 0C86 0 43 0 21.5 0L0 0Z" fill="#e1f6e9"></path><path d="M0 24L21.5 23.3C43 22.7 86 21.3 128.8 21.8C171.7 22.3 214.3 24.7 257.2 26.2C300 27.7 343 28.3 385.8 29.3C428.7 30.3 471.3 31.7 514.2 29.7C557 27.7 600 22.3 642.8 20.7C685.7 19 728.3 21 771.2 24.2C814 27.3 857 31.7 878.5 33.8L900 36L900 0L878.5 0C857 0 814 0 771.2 0C728.3 0 685.7 0 642.8 0C600 0 557 0 514.2 0C471.3 0 428.7 0 385.8 0C343 0 300 0 257.2 0C214.3 0 171.7 0 128.8 0C86 0 43 0 21.5 0L0 0Z" fill="#f1faee"></path></svg>