<svg id="visual" viewBox="0 0 900 600" width="900" height="600" xmlns="http://www.w3.org/2000/svg" xmlns:xlink="http://www.w3.org/1999/xlink" version="1.1"><rect x="0" y="0" width="900" height="600" fill="#F1FAEE"></rect><path d="M0 190L21.5 193.3C43 196.7 86 203.3 128.8 206C171.7 208.7 214.3 207.3 257.2 208.7C300 210 343 214 385.8 212.8C428.7 211.7 471.3 205.3 514.2 208.2C557 211 600 223 642.8 228.2C685.7 233.3 728.3 231.7 771.2 225.2C814 218.7 857 207.3 878.5 201.7L900 196L900 0L878.5 0C857 0 814 0 771.2 0C728.3 0 685.7 0 642.8 0C600 0 557 0 514.2 0C471.3 0 428.7 0 385.8 0C343 0 300 0 257.2 0C214.3 0 171.7 0 128.8 0C86 0 43 0 21.5 0L0 0Z" fill="#ade8f4"></path><path d="M0 133L21.5 132.2C43 131.3 86 129.7 128.8 133.7C171.7 137.7 214.3 147.3 257.2 157.7C300 168 343 179 385.8 178.8C428.7 178.7 471.3 167.3 514.2 162C557 156.7 600 157.3 642.8 162.2C685.7 167 728.3 176 771.2 181.3C814 186.7 857 188.3 878.5 189.2L900 190L900 0L878.5 0C857 0 814 0 771.2 0C728.3 0 685.7 0 642.8 0C600 0 557 0 514.2 0C471.3 0 428.7 0 385.8 0C343 0 300 0 257.2 0C214.3 0 171.7 0 128.8 0C86 0 43 0 21.5 0L0 0Z" fill="#bdeeed"></path><path d="M0 150L21.5 144.5C43 139 86 128 128.8 120.7C171.7 113.3 214.3 109.7 257.2 115.2C300 120.7 343 135.3 385.8 141.7C428.7 148 471.3 146 514.2 137.7C557 129.3 600 114.7 642.8 106.7C685.7 98.7 728.3 97.3 771.2 98.5C814 99.7 857 103.3 878.5 105.2L900 107L900 0L878.5 0C857 0 814 0 771.2 0C728.3 0 685.7 0 642.8 0C600 0 557 0 514.2 0C471.3 0 428.7 0 385.8 0C343 0 300 0 257.2 0C214.3 0 171.7 0 128.8 0C86 0 43 0 21.5 0L0 0Z" fill="#cff2e9"></path><path d="M0 77L21.5 76.2C43 75.3 86 73.7 128.8 78.7C171.7 83.7 214.3 95.3 257.2 98.5C300 101.7 343 96.3 385.8 94.7C428.7 93 471.3 95 514.2 93C557 91 600 85 642.8 80.2C685.7 75.3 728.3 71.7 771.2 72.2C814 72.7 857 77.3 878.5 79.7L900 82L900 0L878.5 0C857 0 814 0 771.2 0C728.3 0 685.7 0 642.8 0C600 0 557 0 514.2 0C471.3 0 428.7 0 385.8 0C343 0 300 0 257.2 0C214.3 0 171.7 0 128.8 0C86 0 43 0 21.5 0L0 0Z" fill="#e1f6e9"></path><path d="M0 44L21.5 47.2C43 50.3 86 56.7 128.8 54.3C171.7 52 214.3 41 257.2 38.2C300 35.3 343 40.7 385.8 41.3C428.7 42 471.3 38 514.2 41.3C557 44.7 600 55.3 642.8 57.3C685.7 59.3 728.3 52.7 771.2 50.7C814 48.7 857 51.3 878.5 52.7L900 54L900 0L878.5 0C857 0 814 0 771.2 0C728.3 0 685.7 0 642.8 0C600 0 557 0 514.2 0C471.3 0 428.7 0 385.8 0C343 0 300 0 257.2 0C214.3 0 171.7 0 128.8 0C86 0 43 0 21.5 0L0 0Z" fill="#f1faee"></path></svg>