<svg id="visual" viewBox="0 0 900 900" width="900" height="900" xmlns="http://www.w3.org/2000/svg" xmlns:xlink="http://www.w3.org/1999/xlink" version="1.1"><rect x="0" y="0" width="900" height="900" fill="#F1FAEE"></rect><path d="M0 521L21.5 508.2C43 495.3 86 469.7 128.8 481.7C171.7 493.7 214.3 543.3 257.2 576.8C300 610.3 343 627.7 385.8 613.7C428.7 599.7 471.3 554.3 514.2 547.2C557 540 600 571 642.8 579.7C685.7 588.3 728.3 574.7 771.2 579.7C814 584.7 857 608.3 878.5 620.2L900 632L900 0L878.5 0C857 0 814 0 771.2 0C728.3 0 685.7 0 642.8 0C600 0 557 0 514.2 0C471.3 0 428.7 0 385.8 0C343 0 300 0 257.2 0C214.3 0 171.7 0 128.8 0C86 0 43 0 21.5 0L0 0Z" fill="#ade8f4"></path><path d="M0 423L21.5 412.5C43 402 86 381 128.8 396.5C171.7 412 214.3 464 257.2 491.3C300 518.7 343 521.3 385.8 511.2C428.7 501 471.3 478 514.2 477.3C557 476.7 600 498.3 642.8 491.8C685.7 485.3 728.3 450.7 771.2 452.3C814 454 857 492 878.5 511L900 530L900 0L878.5 0C857 0 814 0 771.2 0C728.3 0 685.7 0 642.8 0C600 0 557 0 514.2 0C471.3 0 428.7 0 385.8 0C343 0 300 0 257.2 0C214.3 0 171.7 0 128.8 0C86 0 43 0 21.5 0L0 0Z" fill="#bdeeed"></path><path d="M0 399L21.5 383C43 367 86 335 128.8 324.8C171.7 314.7 214.3 326.3 257.2 344.2C300 362 343 386 385.8 377.7C428.7 369.3 471.3 328.7 514.2 303.3C557 278 600 268 642.8 283.2C685.7 298.3 728.3 338.7 771.2 361C814 383.3 857 387.7 878.5 389.8L900 392L900 0L878.5 0C857 0 814 0 771.2 0C728.3 0 685.7 0 642.8 0C600 0 557 0 514.2 0C471.3 0 428.7 0 385.8 0C343 0 300 0 257.2 0C214.3 0 171.7 0 128.8 0C86 0 43 0 21.5 0L0 0Z" fill="#cff2e9"></path><path d="M0 236L21.5 246.5C43 257 86 278 128.8 274.5C171.7 271 214.3 243 257.2 228.5C300 214 343 213 385.8 206.7C428.7 200.3 471.3 188.7 514.2 198.2C557 207.7 600 238.3 642.8 258.8C685.7 279.3 728.3 289.7 771.2 276.8C814 264 857 228 878.5 210L900 192L900 0L878.5 0C857 0 814 0 771.2 0C728.3 0 685.7 0 642.8 0C600 0 557 0 514.2 0C471.3 0 428.7 0 385.8 0C343 0 300 0 257.2 0C214.3 0 171.7 0 128.8 0C86 0 43 0 21.5 0L0 0Z" fill="#e1f6e9"></path><path d="M0 113L21.5 109.5C43 106 86 99 128.8 100.8C171.7 102.7 214.3 113.3 257.2 120.2C300 127 343 130 385.8 134.8C428.7 139.7 471.3 146.3 514.2 137.8C557 129.3 600 105.7 642.8 97.7C685.7 89.7 728.3 97.3 771.2 111.7C814 126 857 147 878.5 157.5L900 168L900 0L878.5 0C857 0 814 0 771.2 0C728.3 0 685.7 0 642.8 0C600 0 557 0 514.2 0C471.3 0 428.7 0 385.8 0C343 0 300 0 257.2 0C214.3 0 171.7 0 128.8 0C86 0 43 0 21.5 0L0 0Z" fill="#f1faee"></path></svg>