<svg id="visual" viewBox="0 0 675 900" width="675" height="900" xmlns="http://www.w3.org/2000/svg" xmlns:xlink="http://www.w3.org/1999/xlink" version="1.1"><rect x="0" y="0" width="675" height="900" fill="#f1faee"></rect><path d="M309 0L312 21.5C315 43 321 86 319.5 128.8C318 171.7 309 214.3 302.5 257.2C296 300 292 343 308.3 385.8C324.7 428.7 361.3 471.3 362.8 514.2C364.3 557 330.7 600 313.2 642.8C295.7 685.7 294.3 728.3 313.2 771.2C332 814 371 857 390.5 878.5L410 900L0 900L0 878.5C0 857 0 814 0 771.2C0 728.3 0 685.7 0 642.8C0 600 0 557 0 514.2C0 471.3 0 428.7 0 385.8C0 343 0 300 0 257.2C0 214.3 0 171.7 0 128.8C0 86 0 43 0 21.5L0 0Z" fill="#f1faee"></path><path d="M335 0L316.8 21.5C298.7 43 262.3 86 251.3 128.8C240.3 171.7 254.7 214.3 258.8 257.2C263 300 257 343 265.3 385.8C273.7 428.7 296.3 471.3 294.3 514.2C292.3 557 265.7 600 253.2 642.8C240.7 685.7 242.3 728.3 251.8 771.2C261.3 814 278.7 857 287.3 878.5L296 900L0 900L0 878.5C0 857 0 814 0 771.2C0 728.3 0 685.7 0 642.8C0 600 0 557 0 514.2C0 471.3 0 428.7 0 385.8C0 343 0 300 0 257.2C0 214.3 0 171.7 0 128.8C0 86 0 43 0 21.5L0 0Z" fill="#e1f6e9"></path><path d="M206 0L215.3 21.5C224.7 43 243.3 86 245.2 128.8C247 171.7 232 214.3 227.7 257.2C223.3 300 229.7 343 232.7 385.8C235.7 428.7 235.3 471.3 225 514.2C214.7 557 194.3 600 186.7 642.8C179 685.7 184 728.3 192.3 771.2C200.7 814 212.3 857 218.2 878.5L224 900L0 900L0 878.5C0 857 0 814 0 771.2C0 728.3 0 685.7 0 642.8C0 600 0 557 0 514.2C0 471.3 0 428.7 0 385.8C0 343 0 300 0 257.2C0 214.3 0 171.7 0 128.8C0 86 0 43 0 21.5L0 0Z" fill="#cff2e9"></path><path d="M103 0L117.7 21.5C132.3 43 161.7 86 173.2 128.8C184.7 171.7 178.3 214.3 165.2 257.2C152 300 132 343 128.2 385.8C124.3 428.7 136.7 471.3 147.5 514.2C158.3 557 167.7 600 172.8 642.8C178 685.7 179 728.3 179 771.2C179 814 178 857 177.5 878.5L177 900L0 900L0 878.5C0 857 0 814 0 771.2C0 728.3 0 685.7 0 642.8C0 600 0 557 0 514.2C0 471.3 0 428.7 0 385.8C0 343 0 300 0 257.2C0 214.3 0 171.7 0 128.8C0 86 0 43 0 21.5L0 0Z" fill="#bdeeed"></path><path d="M56 0L63 21.5C70 43 84 86 88.5 128.8C93 171.7 88 214.3 88 257.2C88 300 93 343 90.2 385.8C87.3 428.7 76.7 471.3 75.3 514.2C74 557 82 600 87 642.8C92 685.7 94 728.3 95.3 771.2C96.7 814 97.3 857 97.7 878.5L98 900L0 900L0 878.5C0 857 0 814 0 771.2C0 728.3 0 685.7 0 642.8C0 600 0 557 0 514.2C0 471.3 0 428.7 0 385.8C0 343 0 300 0 257.2C0 214.3 0 171.7 0 128.8C0 86 0 43 0 21.5L0 0Z" fill="#ade8f4"></path></svg>