<svg id="visual" viewBox="0 0 600 900" width="600" height="900" xmlns="http://www.w3.org/2000/svg" xmlns:xlink="http://www.w3.org/1999/xlink" version="1.1"><rect x="0" y="0" width="600" height="900" fill="#F1FAEE"></rect><path d="M0 342L14.3 348.3C28.7 354.7 57.3 367.3 85.8 372.3C114.3 377.3 142.7 374.7 171.2 376.8C199.7 379 228.3 386 257 384C285.7 382 314.3 371 343 376.2C371.7 381.3 400.3 402.7 428.8 411.8C457.3 421 485.7 418 514.2 406.3C542.7 394.7 571.3 374.3 585.7 364.2L600 354L600 0L585.7 0C571.3 0 542.7 0 514.2 0C485.7 0 457.3 0 428.8 0C400.3 0 371.7 0 343 0C314.3 0 285.7 0 257 0C228.3 0 199.7 0 171.2 0C142.7 0 114.3 0 85.8 0C57.3 0 28.7 0 14.3 0L0 0Z" fill="#ade8f4"></path><path d="M0 240L14.3 238.5C28.7 237 57.3 234 85.8 241.2C114.3 248.3 142.7 265.7 171.2 284.3C199.7 303 228.3 323 257 322.7C285.7 322.3 314.3 301.7 343 292C371.7 282.3 400.3 283.7 428.8 292.5C457.3 301.3 485.7 317.7 514.2 327.3C542.7 337 571.3 340 585.7 341.5L600 343L600 0L585.7 0C571.3 0 542.7 0 514.2 0C485.7 0 457.3 0 428.8 0C400.3 0 371.7 0 343 0C314.3 0 285.7 0 257 0C228.3 0 199.7 0 171.2 0C142.7 0 114.3 0 85.8 0C57.3 0 28.7 0 14.3 0L0 0Z" fill="#bdeeed"></path><path d="M0 271L14.3 261.2C28.7 251.3 57.3 231.7 85.8 218.5C114.3 205.3 142.7 198.7 171.2 208.5C199.7 218.3 228.3 244.7 257 256C285.7 267.3 314.3 263.7 343 248.7C371.7 233.7 400.3 207.3 428.8 193C457.3 178.7 485.7 176.3 514.2 178.5C542.7 180.7 571.3 187.3 585.7 190.7L600 194L600 0L585.7 0C571.3 0 542.7 0 514.2 0C485.7 0 457.3 0 428.8 0C400.3 0 371.7 0 343 0C314.3 0 285.7 0 257 0C228.3 0 199.7 0 171.2 0C142.7 0 114.3 0 85.8 0C57.3 0 28.7 0 14.3 0L0 0Z" fill="#cff2e9"></path><path d="M0 139L14.3 137.5C28.7 136 57.3 133 85.8 142C114.3 151 142.7 172 171.2 177.8C199.7 183.7 228.3 174.3 257 171.5C285.7 168.7 314.3 172.3 343 168.7C371.7 165 400.3 154 428.8 145.3C457.3 136.7 485.7 130.3 514.2 131.2C542.7 132 571.3 140 585.7 144L600 148L600 0L585.7 0C571.3 0 542.7 0 514.2 0C485.7 0 457.3 0 428.8 0C400.3 0 371.7 0 343 0C314.3 0 285.7 0 257 0C228.3 0 199.7 0 171.2 0C142.7 0 114.3 0 85.8 0C57.3 0 28.7 0 14.3 0L0 0Z" fill="#e1f6e9"></path><path d="M0 81L14.3 86.7C28.7 92.3 57.3 103.7 85.8 99.2C114.3 94.7 142.7 74.3 171.2 69C199.7 63.7 228.3 73.3 257 74.7C285.7 76 314.3 69 343 75.2C371.7 81.3 400.3 100.7 428.8 104.3C457.3 108 485.7 96 514.2 92.3C542.7 88.7 571.3 93.3 585.7 95.7L600 98L600 0L585.7 0C571.3 0 542.7 0 514.2 0C485.7 0 457.3 0 428.8 0C400.3 0 371.7 0 343 0C314.3 0 285.7 0 257 0C228.3 0 199.7 0 171.2 0C142.7 0 114.3 0 85.8 0C57.3 0 28.7 0 14.3 0L0 0Z" fill="#f1faee"></path></svg>