<svg id="visual" viewBox="0 0 900 600" width="900" height="600" xmlns="http://www.w3.org/2000/svg" xmlns:xlink="http://www.w3.org/1999/xlink" version="1.1"><rect x="0" y="0" width="900" height="600" fill="#001220"></rect><defs><linearGradient id="grad1_0" x1="33.3%" y1="0%" x2="100%" y2="100%"><stop offset="20%" stop-color="#fbae3c" stop-opacity="1"></stop><stop offset="80%" stop-color="#fbae3c" stop-opacity="1"></stop></linearGradient></defs><defs><linearGradient id="grad1_1" x1="33.3%" y1="0%" x2="100%" y2="100%"><stop offset="20%" stop-color="#fbae3c" stop-opacity="1"></stop><stop offset="80%" stop-color="#eb7458" stop-opacity="1"></stop></linearGradient></defs><defs><linearGradient id="grad1_2" x1="33.3%" y1="0%" x2="100%" y2="100%"><stop offset="20%" stop-color="#b84e6c" stop-opacity="1"></stop><stop offset="80%" stop-color="#eb7458" stop-opacity="1"></stop></linearGradient></defs><defs><linearGradient id="grad1_3" x1="33.3%" y1="0%" x2="100%" y2="100%"><stop offset="20%" stop-color="#b84e6c" stop-opacity="1"></stop><stop offset="80%" stop-color="#713c69" stop-opacity="1"></stop></linearGradient></defs><defs><linearGradient id="grad1_4" x1="33.3%" y1="0%" x2="100%" y2="100%"><stop offset="20%" stop-color="#2d2b4c" stop-opacity="1"></stop><stop offset="80%" stop-color="#713c69" stop-opacity="1"></stop></linearGradient></defs><defs><linearGradient id="grad1_5" x1="33.3%" y1="0%" x2="100%" y2="100%"><stop offset="20%" stop-color="#2d2b4c" stop-opacity="1"></stop><stop offset="80%" stop-color="#001220" stop-opacity="1"></stop></linearGradient></defs><defs><linearGradient id="grad2_0" x1="0%" y1="0%" x2="66.7%" y2="100%"><stop offset="20%" stop-color="#fbae3c" stop-opacity="1"></stop><stop offset="80%" stop-color="#fbae3c" stop-opacity="1"></stop></linearGradient></defs><defs><linearGradient id="grad2_1" x1="0%" y1="0%" x2="66.7%" y2="100%"><stop offset="20%" stop-color="#eb7458" stop-opacity="1"></stop><stop offset="80%" stop-color="#fbae3c" stop-opacity="1"></stop></linearGradient></defs><defs><linearGradient id="grad2_2" x1="0%" y1="0%" x2="66.7%" y2="100%"><stop offset="20%" stop-color="#eb7458" stop-opacity="1"></stop><stop offset="80%" stop-color="#b84e6c" stop-opacity="1"></stop></linearGradient></defs><defs><linearGradient id="grad2_3" x1="0%" y1="0%" x2="66.7%" y2="100%"><stop offset="20%" stop-color="#713c69" stop-opacity="1"></stop><stop offset="80%" stop-color="#b84e6c" stop-opacity="1"></stop></linearGradient></defs><defs><linearGradient id="grad2_4" x1="0%" y1="0%" x2="66.7%" y2="100%"><stop offset="20%" stop-color="#713c69" stop-opacity="1"></stop><stop offset="80%" stop-color="#2d2b4c" stop-opacity="1"></stop></linearGradient></defs><defs><linearGradient id="grad2_5" x1="0%" y1="0%" x2="66.7%" y2="100%"><stop offset="20%" stop-color="#001220" stop-opacity="1"></stop><stop offset="80%" stop-color="#2d2b4c" stop-opacity="1"></stop></linearGradient></defs><g transform="translate(900, 0)"><path d="M0 378.6C-46.3 368.4 -92.6 358.3 -142 342.8C-191.3 327.3 -243.7 306.4 -267.7 267.7C-291.7 229 -287.4 172.4 -301.2 124.8C-314.9 77.2 -346.8 38.6 -378.6 0L0 0Z" fill="#131f37"></path><path d="M0 315.5C-38.6 307 -77.2 298.5 -118.3 285.6C-159.4 272.7 -203.1 255.4 -223.1 223.1C-243.1 190.8 -239.5 143.6 -251 104C-262.5 64.3 -289 32.1 -315.5 0L0 0Z" fill="#4d345e"></path><path d="M0 252.4C-30.9 245.6 -61.8 238.8 -94.7 228.5C-127.5 218.2 -162.4 204.3 -178.5 178.5C-194.5 152.6 -191.6 114.9 -200.8 83.2C-210 51.4 -231.2 25.7 -252.4 0L0 0Z" fill="#96446e"></path><path d="M0 189.3C-23.2 184.2 -46.3 179.1 -71 171.4C-95.7 163.6 -121.8 153.2 -133.8 133.8C-145.9 114.5 -143.7 86.2 -150.6 62.4C-157.5 38.6 -173.4 19.3 -189.3 0L0 0Z" fill="#d55e64"></path><path d="M0 126.2C-15.4 122.8 -30.9 119.4 -47.3 114.3C-63.8 109.1 -81.2 102.1 -89.2 89.2C-97.2 76.3 -95.8 57.5 -100.4 41.6C-105 25.7 -115.6 12.9 -126.2 0L0 0Z" fill="#f88f4a"></path><path d="M0 63.1C-7.7 61.4 -15.4 59.7 -23.7 57.1C-31.9 54.5 -40.6 51.1 -44.6 44.6C-48.6 38.2 -47.9 28.7 -50.2 20.8C-52.5 12.9 -57.8 6.4 -63.1 0L0 0Z" fill="#fbae3c"></path></g><g transform="translate(0, 600)"><path d="M0 -378.6C54.3 -377.8 108.6 -377.1 144.9 -349.8C181.1 -322.5 199.4 -268.6 231.9 -231.9C264.5 -195.3 311.3 -175.8 338.1 -140.1C365 -104.3 371.8 -52.1 378.6 0L0 0Z" fill="#131f37"></path><path d="M0 -315.5C45.3 -314.9 90.5 -314.2 120.7 -291.5C151 -268.7 166.2 -223.8 193.3 -193.3C220.4 -162.7 259.4 -146.5 281.8 -116.7C304.1 -86.9 309.8 -43.4 315.5 0L0 0Z" fill="#4d345e"></path><path d="M0 -252.4C36.2 -251.9 72.4 -251.4 96.6 -233.2C120.8 -215 132.9 -179.1 154.6 -154.6C176.3 -130.2 207.5 -117.2 225.4 -93.4C243.3 -69.5 247.8 -34.8 252.4 0L0 0Z" fill="#96446e"></path><path d="M0 -189.3C27.2 -188.9 54.3 -188.5 72.4 -174.9C90.6 -161.2 99.7 -134.3 116 -116C132.2 -97.6 155.7 -87.9 169.1 -70C182.5 -52.1 185.9 -26.1 189.3 0L0 0Z" fill="#d55e64"></path><path d="M0 -126.2C18.1 -125.9 36.2 -125.7 48.3 -116.6C60.4 -107.5 66.5 -89.5 77.3 -77.3C88.2 -65.1 103.8 -58.6 112.7 -46.7C121.7 -34.8 123.9 -17.4 126.2 0L0 0Z" fill="#f88f4a"></path><path d="M0 -63.1C9.1 -63 18.1 -62.8 24.1 -58.3C30.2 -53.7 33.2 -44.8 38.7 -38.7C44.1 -32.5 51.9 -29.3 56.4 -23.3C60.8 -17.4 62 -8.7 63.1 0L0 0Z" fill="#fbae3c"></path></g></svg>