<svg id="visual" viewBox="0 0 1200 450" width="1200" height="450" xmlns="http://www.w3.org/2000/svg" xmlns:xlink="http://www.w3.org/1999/xlink" version="1.1"><rect x="0" y="0" width="1200" height="450" fill="#001220"></rect><defs><linearGradient id="grad1_0" x1="62.5%" y1="0%" x2="100%" y2="100%"><stop offset="-3.333333333333332%" stop-color="#fbae3c" stop-opacity="1"></stop><stop offset="103.33333333333334%" stop-color="#fbae3c" stop-opacity="1"></stop></linearGradient></defs><defs><linearGradient id="grad1_1" x1="62.5%" y1="0%" x2="100%" y2="100%"><stop offset="-3.333333333333332%" stop-color="#fbae3c" stop-opacity="1"></stop><stop offset="103.33333333333334%" stop-color="#eb7458" stop-opacity="1"></stop></linearGradient></defs><defs><linearGradient id="grad1_2" x1="62.5%" y1="0%" x2="100%" y2="100%"><stop offset="-3.333333333333332%" stop-color="#b84e6c" stop-opacity="1"></stop><stop offset="103.33333333333334%" stop-color="#eb7458" stop-opacity="1"></stop></linearGradient></defs><defs><linearGradient id="grad1_3" x1="62.5%" y1="0%" x2="100%" y2="100%"><stop offset="-3.333333333333332%" stop-color="#b84e6c" stop-opacity="1"></stop><stop offset="103.33333333333334%" stop-color="#713c69" stop-opacity="1"></stop></linearGradient></defs><defs><linearGradient id="grad1_4" x1="62.5%" y1="0%" x2="100%" y2="100%"><stop offset="-3.333333333333332%" stop-color="#2d2b4c" stop-opacity="1"></stop><stop offset="103.33333333333334%" stop-color="#713c69" stop-opacity="1"></stop></linearGradient></defs><defs><linearGradient id="grad1_5" x1="62.5%" y1="0%" x2="100%" y2="100%"><stop offset="-3.333333333333332%" stop-color="#2d2b4c" stop-opacity="1"></stop><stop offset="103.33333333333334%" stop-color="#001220" stop-opacity="1"></stop></linearGradient></defs><defs><linearGradient id="grad2_0" x1="0%" y1="0%" x2="37.5%" y2="100%"><stop offset="-3.333333333333332%" stop-color="#fbae3c" stop-opacity="1"></stop><stop offset="103.33333333333334%" stop-color="#fbae3c" stop-opacity="1"></stop></linearGradient></defs><defs><linearGradient id="grad2_1" x1="0%" y1="0%" x2="37.5%" y2="100%"><stop offset="-3.333333333333332%" stop-color="#eb7458" stop-opacity="1"></stop><stop offset="103.33333333333334%" stop-color="#fbae3c" stop-opacity="1"></stop></linearGradient></defs><defs><linearGradient id="grad2_2" x1="0%" y1="0%" x2="37.5%" y2="100%"><stop offset="-3.333333333333332%" stop-color="#eb7458" stop-opacity="1"></stop><stop offset="103.33333333333334%" stop-color="#b84e6c" stop-opacity="1"></stop></linearGradient></defs><defs><linearGradient id="grad2_3" x1="0%" y1="0%" x2="37.5%" y2="100%"><stop offset="-3.333333333333332%" stop-color="#713c69" stop-opacity="1"></stop><stop offset="103.33333333333334%" stop-color="#b84e6c" stop-opacity="1"></stop></linearGradient></defs><defs><linearGradient id="grad2_4" x1="0%" y1="0%" x2="37.5%" y2="100%"><stop offset="-3.333333333333332%" stop-color="#713c69" stop-opacity="1"></stop><stop offset="103.33333333333334%" stop-color="#2d2b4c" stop-opacity="1"></stop></linearGradient></defs><defs><linearGradient id="grad2_5" x1="0%" y1="0%" x2="37.5%" y2="100%"><stop offset="-3.333333333333332%" stop-color="#001220" stop-opacity="1"></stop><stop offset="103.33333333333334%" stop-color="#2d2b4c" stop-opacity="1"></stop></linearGradient></defs><g transform="translate(1200, 0)"><path d="M0 450C-55.9 399.5 -111.8 349 -183.5 317.8C-255.2 286.6 -342.7 274.8 -389.7 225C-436.8 175.2 -443.4 87.6 -450 0L0 0Z" fill="#131f37"></path><path d="M0 375C-46.6 332.9 -93.2 290.9 -152.9 264.9C-212.7 238.9 -285.6 229 -324.8 187.5C-364 146 -369.5 73 -375 0L0 0Z" fill="#4d345e"></path><path d="M0 300C-37.3 266.3 -74.5 232.7 -122.3 211.9C-170.1 191.1 -228.4 183.2 -259.8 150C-291.2 116.8 -295.6 58.4 -300 0L0 0Z" fill="#96446e"></path><path d="M0 225C-28 199.8 -55.9 174.5 -91.7 158.9C-127.6 143.3 -171.3 137.4 -194.9 112.5C-218.4 87.6 -221.7 43.8 -225 0L0 0Z" fill="#d55e64"></path><path d="M0 150C-18.6 133.2 -37.3 116.3 -61.2 105.9C-85.1 95.5 -114.2 91.6 -129.9 75C-145.6 58.4 -147.8 29.2 -150 0L0 0Z" fill="#f88f4a"></path><path d="M0 75C-9.3 66.6 -18.6 58.2 -30.6 53C-42.5 47.8 -57.1 45.8 -65 37.5C-72.8 29.2 -73.9 14.6 -75 0L0 0Z" fill="#fbae3c"></path></g><g transform="translate(0, 450)"><path d="M0 -450C54.6 -397.2 109.1 -344.4 181 -313.5C252.9 -282.6 342 -273.6 389.7 -225C437.4 -176.4 443.7 -88.2 450 0L0 0Z" fill="#131f37"></path><path d="M0 -375C45.5 -331 91 -287 150.8 -261.3C210.7 -235.5 285 -228 324.8 -187.5C364.5 -147 369.8 -73.5 375 0L0 0Z" fill="#4d345e"></path><path d="M0 -300C36.4 -264.8 72.8 -229.6 120.7 -209C168.6 -188.4 228 -182.4 259.8 -150C291.6 -117.6 295.8 -58.8 300 0L0 0Z" fill="#96446e"></path><path d="M0 -225C27.3 -198.6 54.6 -172.2 90.5 -156.8C126.4 -141.3 171 -136.8 194.9 -112.5C218.7 -88.2 221.9 -44.1 225 0L0 0Z" fill="#d55e64"></path><path d="M0 -150C18.2 -132.4 36.4 -114.8 60.3 -104.5C84.3 -94.2 114 -91.2 129.9 -75C145.8 -58.8 147.9 -29.4 150 0L0 0Z" fill="#f88f4a"></path><path d="M0 -75C9.1 -66.2 18.2 -57.4 30.2 -52.3C42.1 -47.1 57 -45.6 65 -37.5C72.9 -29.4 74 -14.7 75 0L0 0Z" fill="#fbae3c"></path></g></svg>